<svg xmlns="http://www.w3.org/2000/svg" viewBox="0 0 64 64"><path fill="#ffa433" d="M59,44.5v.09A8.66,8.66,0,0,1,50.25,53H13.75A8.66,8.66,0,0,1,5,44.59V44.5C5,38.93,9,34,15.29,30.77h0A34,34,0,0,1,25.62,27.5,40,40,0,0,1,32,27h.67a39.79,39.79,0,0,1,8.49,1h0a37.06,37.06,0,0,1,4.18,1.26A29.31,29.31,0,0,1,50.88,32C55.89,35.17,59,39.6,59,44.5Z"/><path fill="#ffa433" d="M59,44.5v.09A8.66,8.66,0,0,1,50.25,53H13.75A8.66,8.66,0,0,1,5,44.59V44.5a12,12,0,0,1,.2-2.16c.89-4.68,4.64-8.8,10.09-11.57h0A34,34,0,0,1,25.62,27.5,40,40,0,0,1,32,27h.67a39.79,39.79,0,0,1,8.49,1h0a37.06,37.06,0,0,1,4.18,1.26A29.31,29.31,0,0,1,50.88,32c4.27,2.7,7.16,6.31,7.91,10.36A10.86,10.86,0,0,1,59,44.5Z"/><path fill="#ffc43b" d="M58.79,42.36A8.75,8.75,0,0,1,50.25,49H13.75A8.76,8.76,0,0,1,5.2,42.34c.89-4.68,4.64-8.8,10.09-11.57h0A34,34,0,0,1,25.62,27.5,40,40,0,0,1,32,27h.67a39.79,39.79,0,0,1,8.49,1h0a37.06,37.06,0,0,1,4.18,1.26A29.31,29.31,0,0,1,50.88,32C55.15,34.7,58,38.31,58.79,42.36Z"/><path fill="#bc5f19" d="M41.16 28a12 12 0 0 0-11 10.19 2 2 0 1 1-4-.51A16.07 16.07 0 0 1 32.67 27 39.79 39.79 0 0 1 41.16 28zM25.62 27.5A11.49 11.49 0 0 0 22 29.26a12 12 0 0 0-4.88 8.05A1.92 1.92 0 0 1 15.24 39H15a1.89 1.89 0 0 1-1.87-2.16 15.9 15.9 0 0 1 2.14-6.07h0A34 34 0 0 1 25.62 27.5zM50.88 32a9 9 0 0 0-8.74 7.41 2 2 0 0 1-2 1.59 2 2 0 0 1-2-2 2.16 2.16 0 0 1 0-.35 13 13 0 0 1 7.14-9.37A29.31 29.31 0 0 1 50.88 32z"/><path fill="#e1ebf0" d="M21 24.24a1 1 0 0 1-.71-.29 4 4 0 0 1 0-5.66 2 2 0 0 0 .59-1.41 2 2 0 0 0-.59-1.42 1 1 0 0 1 0-1.41 1 1 0 0 1 1.42 0 4 4 0 0 1 0 5.66 2 2 0 0 0-.59 1.41 2 2 0 0 0 .59 1.42 1 1 0 0 1 0 1.41A1 1 0 0 1 21 24.24zM32 20.24a1 1 0 0 1-.71-.29 4 4 0 0 1 0-5.66 2 2 0 0 0 .59-1.41 2 2 0 0 0-.59-1.42 1 1 0 0 1 0-1.41 1 1 0 0 1 1.42 0 4 4 0 0 1 0 5.66 2 2 0 0 0-.59 1.41 2 2 0 0 0 .59 1.42 1 1 0 0 1 0 1.41A1 1 0 0 1 32 20.24zM43 23.24a1 1 0 0 1-.71-.29 4 4 0 0 1 0-5.66 2 2 0 0 0 .59-1.41 2 2 0 0 0-.59-1.42 1 1 0 0 1 0-1.41 1 1 0 0 1 1.42 0 4 4 0 0 1 0 5.66 2 2 0 0 0-.59 1.41 2 2 0 0 0 .59 1.42 1 1 0 0 1 0 1.41A1 1 0 0 1 43 23.24z"/></svg>