<svg xmlns="http://www.w3.org/2000/svg" xmlns:xlink="http://www.w3.org/1999/xlink" viewBox="0 0 64 64"><defs><linearGradient id="b" x1="10" x2="55" y1="32" y2="32" gradientUnits="userSpaceOnUse"><stop offset="0" stop-color="#f2c4b0"/><stop offset="1" stop-color="#ffe3d7"/></linearGradient><linearGradient id="a" x1="33" x2="51" y1="20.79" y2="20.79" gradientUnits="userSpaceOnUse"><stop offset="0" stop-color="#da5466"/><stop offset="1" stop-color="#f4929c"/></linearGradient><linearGradient id="c" x1="13" x2="31" y1="13.72" y2="13.72" xlink:href="#a"/><linearGradient id="d" x1="13" x2="31.01" y1="34.9" y2="34.9" xlink:href="#a"/><linearGradient id="e" x1="26.73" x2="50" y1="47.62" y2="47.62" xlink:href="#a"/><linearGradient id="f" x1="26" x2="38" y1="34" y2="34" xlink:href="#b"/><linearGradient id="g" x1="28" x2="36" y1="34" y2="34" xlink:href="#a"/></defs><path fill="url(#b)" d="M50.28,34.23C59.75,20.12,50.11,1.08,33.4,0A22,22,0,0,0,10,22.9h0v9.51A31.59,31.59,0,0,0,41.59,64,13.27,13.27,0,0,0,55,51.52a13,13,0,0,0-3.81-9.72A6,6,0,0,1,50.28,34.23Z"/><path fill="url(#a)" d="M33,31.19A2,2,0,0,0,34.06,33l9.64,5.1a2,2,0,0,0,2.92-1.51A10.21,10.21,0,0,1,48.14,32,19,19,0,0,0,35.38,3.31a2,2,0,0,0-2.38,2Z"/><path fill="url(#c)" d="M31,11.37V5.29a2,2,0,0,0-2.39-2A19.4,19.4,0,0,0,13,22.46v1.7L30.09,13.05A2,2,0,0,0,31,11.37Z"/><path fill="url(#d)" d="M31,32.57v-14a2,2,0,0,0-3.09-1.68l-14,9.1A2,2,0,0,0,13,27.63V32a28,28,0,0,0,9.19,20.76,2,2,0,0,0,3.27-.92C31.44,31.36,31,33,31,32.57Z"/><path fill="url(#e)" d="M48,42.59l-13.2-7a2,2,0,0,0-2.86,1.2L26.81,54.38a2,2,0,0,0,1,2.34,28.1,28.1,0,0,0,10,3.15h2.09C44.83,59.87,50,55.22,50,49A11.44,11.44,0,0,0,48,42.59Z"/><circle cx="32" cy="34" r="6" fill="url(#f)"/><circle cx="32" cy="34" r="4" fill="url(#g)"/></svg>