<svg xmlns="http://www.w3.org/2000/svg" enable-background="new 0 0 24 24" viewBox="0 0 24 24"><linearGradient id="a" x1="12.034" x2="12.003" y1="22.876" y2="15.47" gradientUnits="userSpaceOnUse"><stop offset="0" stop-color="#00bf57"/><stop offset="1" stop-color="#3fff71"/></linearGradient><path fill="url(#a)" d="M16,14.4c-0.1-0.3-0.3-0.5-0.6-0.6c-0.4-0.1-0.8-0.4-1.1-0.8c-0.3-0.4-0.9-0.6-1.3-0.3c-0.6,0.3-1.4,0.3-2,0c-0.5-0.3-1-0.1-1.3,0.3c-0.3,0.4-0.6,0.7-1.1,0.8C8.4,14,8.1,14.2,8,14.4S7.9,15,8,15.3l1,2V20c0,1.1,0.9,2,2,2h2c1.1,0,2-0.9,2-2v-2.8l1-2C16.1,15,16.1,14.7,16,14.4z"/><linearGradient id="b" x1="18.893" x2="4.686" y1="14.78" y2="3.27" gradientUnits="userSpaceOnUse"><stop offset="0" stop-color="#00bf57"/><stop offset="1" stop-color="#3fff71"/></linearGradient><path fill="url(#b)" d="M22,8c0-2.4-2.1-4.3-4.5-4c-0.7-1.2-2-2-3.5-2c-0.9,0-1.8,0.3-2.5,0.9C10.8,2.3,9.9,2,9,2C7.5,2,6.2,2.8,5.5,4C3.5,4.3,2,6,2,8c0,1.5,0.8,2.8,2,3.5c0,0.2,0,0.3,0,0.5c0,2.2,1.8,4,4,4c0.5,0,0.9-0.1,1.2-0.2c0.6-0.2,1.1-0.5,1.6-1c0.8,0.2,1.6,0.2,2.3,0c0.4,0.4,1,0.8,1.5,0.9c0.4,0.1,0.8,0.2,1.3,0.2c2.2,0,4-1.8,4-4c0-0.2,0-0.3,0-0.5C21.2,10.8,22,9.5,22,8z"/><path fill="#90f489" d="M10.5 7.8c-.2.5-.8.7-1.3.4C7.4 7.4 6.6 8.8 6.4 9.1 6.2 9.6 5.6 9.8 5.1 9.6S4.4 8.7 4.7 8.2C5.4 6.8 7.4 5.1 10 6.5 10.5 6.7 10.7 7.3 10.5 7.8zM17.9 13.1C17.9 13.1 17.9 13.1 17.9 13.1c-.6 0-1-.5-1-1 0-.3-.1-1.1-.5-1.5-.3-.3-.7-.5-1.3-.5-.6 0-1-.4-1-1s.4-1 1-1c1.4 0 2.3.6 2.8 1.1 1.1 1.2 1.1 2.8 1.1 3C18.9 12.7 18.4 13.1 17.9 13.1z"/></svg>